<svg xmlns="http://www.w3.org/2000/svg" xmlns:xlink="http://www.w3.org/1999/xlink" viewBox="0 0 46.62 50"><defs><style>.cls-1{fill:url(#Degradado_sin_nombre_580);}.cls-2{isolation:isolate;}.cls-3{fill:url(#Degradado_sin_nombre_76);}.cls-4{fill:url(#Degradado_sin_nombre_76-2);}.cls-5{fill:url(#Degradado_sin_nombre_87);}.cls-6,.cls-7{mix-blend-mode:soft-light;}.cls-6{fill:url(#Degradado_sin_nombre_165);}.cls-7{fill:url(#Degradado_sin_nombre_165-2);}.cls-8{fill:url(#Degradado_sin_nombre_87-2);}.cls-9{fill:url(#Degradado_sin_nombre_165-3);}.cls-10{fill:url(#Degradado_sin_nombre_88);}.cls-11{clip-path:url(#clip-path);}.cls-12,.cls-13,.cls-14,.cls-15,.cls-16,.cls-17{mix-blend-mode:color-burn;}.cls-12{fill:url(#Degradado_sin_nombre_200);}.cls-13{fill:url(#Degradado_sin_nombre_200-2);}.cls-14{fill:url(#Degradado_sin_nombre_200-3);}.cls-15{fill:url(#Degradado_sin_nombre_200-4);}.cls-16{fill:url(#Degradado_sin_nombre_200-5);}.cls-17{fill:url(#Degradado_sin_nombre_200-6);}.cls-18{fill:#9059fc;}.cls-19{fill:url(#linear-gradient);}.cls-20{fill:url(#linear-gradient-2);}</style><linearGradient id="Degradado_sin_nombre_580" x1="1142.76" y1="-678.4" x2="1156.09" y2="-678.4" gradientUnits="userSpaceOnUse"><stop offset="0" stop-color="#ffab6b"/><stop offset="0.51" stop-color="#ff8cfc"/><stop offset="1" stop-color="#9680ff"/></linearGradient><linearGradient id="Degradado_sin_nombre_76" x1="1145.62" y1="-674.63" x2="1151.72" y2="-645.9" gradientUnits="userSpaceOnUse"><stop offset="0" stop-color="#dc3fad"/><stop offset="1" stop-color="#4610b2"/></linearGradient><linearGradient id="Degradado_sin_nombre_76-2" x1="1146.74" y1="-696.6" x2="1150.06" y2="-680.93" xlink:href="#Degradado_sin_nombre_76"/><linearGradient id="Degradado_sin_nombre_87" x1="1136.65" y1="-652.48" x2="1133.46" y2="-646.1" gradientUnits="userSpaceOnUse"><stop offset="0" stop-color="#f3c84b"/><stop offset="1" stop-color="#ff46b2"/></linearGradient><linearGradient id="Degradado_sin_nombre_165" x1="1161.47" y1="-675.06" x2="1143.81" y2="-666.76" gradientUnits="userSpaceOnUse"><stop offset="0" stop-color="#ffe496" stop-opacity="0"/><stop offset="0.94" stop-color="#efec53"/></linearGradient><linearGradient id="Degradado_sin_nombre_165-2" x1="1149.03" y1="-684.88" x2="1149.82" y2="-693.2" xlink:href="#Degradado_sin_nombre_165"/><linearGradient id="Degradado_sin_nombre_87-2" x1="1156.36" y1="-681.93" x2="1135.68" y2="-671.77" xlink:href="#Degradado_sin_nombre_87"/><linearGradient id="Degradado_sin_nombre_165-3" x1="1150.01" y1="-679.02" x2="1150.5" y2="-682.9" xlink:href="#Degradado_sin_nombre_165"/><linearGradient id="Degradado_sin_nombre_88" x1="1145.63" y1="-672.09" x2="1147.08" y2="-675.44" gradientUnits="userSpaceOnUse"><stop offset="0" stop-color="#ffe496" stop-opacity="0"/><stop offset="1" stop-color="#efec53"/></linearGradient><clipPath id="clip-path" transform="translate(-1125.23 694.04)"><path class="cls-1" d="M1156.09-678.4a6.67,6.67,0,0,1-12.36,3.47,6.69,6.69,0,0,1-.68-5.43,6.67,6.67,0,0,1,12.78.13A6.58,6.58,0,0,1,1156.09-678.4Z"/></clipPath><linearGradient id="Degradado_sin_nombre_200" x1="1142.38" y1="-682.86" x2="1155" y2="-682.86" gradientUnits="userSpaceOnUse"><stop offset="0" stop-color="gray"/><stop offset="1" stop-color="#fff"/></linearGradient><linearGradient id="Degradado_sin_nombre_200-2" x1="1141.65" y1="-678.4" x2="1155.86" y2="-678.4" xlink:href="#Degradado_sin_nombre_200"/><linearGradient id="Degradado_sin_nombre_200-3" x1="1149.21" y1="-678.4" x2="1157.13" y2="-678.4" xlink:href="#Degradado_sin_nombre_200"/><linearGradient id="Degradado_sin_nombre_200-4" x1="1147.66" y1="-672.39" x2="1155.93" y2="-672.39" xlink:href="#Degradado_sin_nombre_200"/><linearGradient id="Degradado_sin_nombre_200-5" x1="1143.4" y1="-673.57" x2="1148.06" y2="-673.57" xlink:href="#Degradado_sin_nombre_200"/><linearGradient id="Degradado_sin_nombre_200-6" x1="1149.98" y1="-676.72" x2="1152.08" y2="-671.96" xlink:href="#Degradado_sin_nombre_200"/><linearGradient id="linear-gradient" x1="31.25" y1="15.41" x2="32.72" y2="15.41" gradientUnits="userSpaceOnUse"><stop offset="0" stop-color="#ff8b2c"/><stop offset="0.23" stop-color="#ff6c58"/><stop offset="0.35" stop-color="#ff5f6b"/><stop offset="0.66" stop-color="#f165b5"/><stop offset="0.89" stop-color="#e869e5"/><stop offset="1" stop-color="#e46bf8"/></linearGradient><linearGradient id="linear-gradient-2" x1="32.48" y1="13.93" x2="33.39" y2="13.93" xlink:href="#linear-gradient"/></defs><g class="cls-2"><g id="Objects"><path class="cls-3" d="M1163.56-672.3a15.2,15.2,0,0,1-13.71,8.64H1143V-644h-8.3v-28.27c2.62.2,5.35.34,8,.42a9.41,9.41,0,0,0,13.46,0C1158.73-672,1161.21-672.12,1163.56-672.3Z" transform="translate(-1125.23 694.04)"/><path class="cls-4" d="M1164.18-683.93c-2.44-.18-5-.33-7.49-.42a9.42,9.42,0,0,0-14.52,0c-2.61.09-5.12.23-7.51.41V-694h15.19A15.18,15.18,0,0,1,1164.18-683.93Z" transform="translate(-1125.23 694.04)"/><path class="cls-5" d="M1143-644.34v.3h-8.3v-25.53C1134.81-663.73,1135.91-650.11,1143-644.34Z" transform="translate(-1125.23 694.04)"/><path class="cls-6" d="M1163.56-672.3a15.24,15.24,0,0,1-7.28,7.22c-11.46.74-16.35-5.56-17.29-7,1.21.06,2.45.11,3.71.15a9.41,9.41,0,0,0,13.46,0C1158.73-672,1161.21-672.12,1163.56-672.3Z" transform="translate(-1125.23 694.04)"/><path class="cls-7" d="M1164.18-683.93c-1.37-.1-2.78-.19-4.24-.27-5.17-9-19.59-8.52-25.28-7.95V-694h15.19A15.18,15.18,0,0,1,1164.18-683.93Z" transform="translate(-1125.23 694.04)"/><path class="cls-8" d="M1153.09-682.36a5,5,0,0,0-8.7,0c-25.94,1-25.28,7.75.42,8.59a4.88,4.88,0,0,0,7.87,0C1177.86-674.7,1178.48-681.34,1153.09-682.36Zm-23.46,4.27c0-1.57,6-2.9,14.23-3.27a7.72,7.72,0,0,0,.28,6.56C1135.82-675.16,1129.63-676.49,1129.63-678.09Zm23.72,3.27a7.74,7.74,0,0,0,.28-6.52C1172.22-680.37,1171.78-675.71,1153.35-674.82Z" transform="translate(-1125.23 694.04)"/><path class="cls-9" d="M1152.1-681.13a2,2,0,0,0-1.83-2.21c-2.42.11-2.42,4.31,0,4.42A2,2,0,0,0,1152.1-681.13Z" transform="translate(-1125.23 694.04)"/><path class="cls-10" d="M1151.41-672.64a4.81,4.81,0,0,1-6.6-1.16l-.67-1a7.72,7.72,0,0,1-.78-4.85A8.59,8.59,0,0,0,1151.41-672.64Z" transform="translate(-1125.23 694.04)"/><path class="cls-1" d="M1156.09-678.4a6.67,6.67,0,0,1-12.36,3.47,6.69,6.69,0,0,1-.68-5.43,6.67,6.67,0,0,1,12.78.13A6.58,6.58,0,0,1,1156.09-678.4Z" transform="translate(-1125.23 694.04)"/><g class="cls-11"><path class="cls-12" d="M1144.82-679.65c2-.2,3.53-1.83,5.29-2.71a7.5,7.5,0,0,1,4.89-.59,7,7,0,0,0-12.1.69c-.25.48-.71,1.22-.44,1.77C1142.82-679.74,1144.1-679.58,1144.82-679.65Z" transform="translate(-1125.23 694.04)"/><path class="cls-13" d="M1141.65-677.7a4,4,0,0,0,3.22.15c2.12-.74,3.59-2.6,5.55-3.62a7.6,7.6,0,0,1,5.44-.59,6.39,6.39,0,0,0-4.76,1.71c-1,.94-1.64,2.16-2.59,3.13a7.22,7.22,0,0,1-6.21,2" transform="translate(-1125.23 694.04)"/><path class="cls-14" d="M1156.74-681.67a7.79,7.79,0,0,0-7.53,6.54,8.66,8.66,0,0,1,7.92-4.54" transform="translate(-1125.23 694.04)"/><path class="cls-15" d="M1150.79-674.06a7.3,7.3,0,0,1,5.14-.75,7.63,7.63,0,0,1-3.29,4,7.63,7.63,0,0,1-4.23,1c-.82,0-.9-.4-.56-1.1A7.27,7.27,0,0,1,1150.79-674.06Z" transform="translate(-1125.23 694.04)"/><path class="cls-16" d="M1143.4-673.39a8.36,8.36,0,0,0,4.66-2.14,5.16,5.16,0,0,1-2.17,3.92" transform="translate(-1125.23 694.04)"/><path class="cls-17" d="M1156.4-678.46c0,.19.29.17.28.36a15.29,15.29,0,0,1-6,3.49,22,22,0,0,1-6.6,1.11c0-.12-.07-.54-.07-.65a23.22,23.22,0,0,0,12.4-4.31" transform="translate(-1125.23 694.04)"/></g><polygon class="cls-18" points="31.84 15.55 31.84 15.55 31.98 16.14 32.13 15.55 32.13 15.55 32.13 15.55 32.72 15.4 32.13 15.26 32.13 15.26 32.13 15.26 31.98 14.67 31.84 15.26 31.84 15.26 31.25 15.4 31.84 15.55"/><polygon class="cls-18" points="32.85 14.02 32.85 14.02 32.94 14.39 33.03 14.02 33.03 14.02 33.03 14.02 33.39 13.94 33.03 13.85 33.03 13.85 33.03 13.85 32.94 13.48 32.85 13.85 32.85 13.85 32.85 13.85 32.48 13.94 32.85 14.02 32.85 14.02"/><polygon class="cls-19" points="31.84 15.55 31.98 16.14 32.13 15.55 32.13 15.55 32.13 15.55 32.72 15.4 32.13 15.26 32.13 15.26 32.13 15.26 31.98 14.67 31.84 15.26 31.84 15.26 31.25 15.4 31.84 15.55 31.84 15.55"/><polygon class="cls-20" points="32.85 14.02 32.94 14.39 33.03 14.02 33.03 14.02 33.03 14.02 33.39 13.94 33.03 13.85 33.03 13.85 33.03 13.85 32.94 13.48 32.85 13.85 32.85 13.85 32.85 13.85 32.48 13.94 32.85 14.02 32.85 14.02 32.85 14.02"/></g></g></svg>